<?xml version="1.0" encoding="utf-8"?>
<!-- Generator: Adobe Illustrator 16.0.4, SVG Export Plug-In . SVG Version: 6.00 Build 0)  -->
<!DOCTYPE svg PUBLIC "-//W3C//DTD SVG 1.1//EN" "http://www.w3.org/Graphics/SVG/1.1/DTD/svg11.dtd">
<svg version="1.1" xmlns="http://www.w3.org/2000/svg" xmlns:xlink="http://www.w3.org/1999/xlink" x="0px" y="0px" width="792px"
	 height="612px" viewBox="0 0 792 612" enable-background="new 0 0 792 612" xml:space="preserve">
<g id="Layer_2">
	<rect fill="#8FD0B5" width="792" height="99"/>
	<rect y="99" fill="#EFDDBD" width="792" height="37"/>
	<text transform="matrix(1 0 0 1 189.3335 124.3936)" font-family="'MyriadPro-Regular'" font-size="20.054">Bio</text>
	<text transform="matrix(1 0 0 1 418 124.3936)" font-family="'MyriadPro-Regular'" font-size="20.05">Photography</text>
	<text transform="matrix(1 0 0 1 280.6685 124.3936)" font-family="'MyriadPro-Regular'" font-size="20.05">Resume</text>
	<text transform="matrix(1 0 0 1 595.665 124.3936)" font-family="'MyriadPro-Regular'" font-size="20.05">Graphic Design</text>
	<rect x="37" y="173" fill="#8FD0B5" width="201" height="151"/>
	<rect x="298.5" y="173" fill="#8FD0B5" width="201" height="151"/>
	<rect x="561" y="172" fill="#8FD0B5" width="201" height="151"/>
	<rect x="36.5" y="388" fill="#8FD0B5" width="201" height="151"/>
	<rect x="298" y="388" fill="#8FD0B5" width="201" height="151"/>
	<rect x="560.5" y="387" fill="#8FD0B5" width="201" height="151"/>
	<text transform="matrix(1 0 0 1 72 124.3193)" font-family="'MyriadPro-Regular'" font-size="20.05">Home</text>
	<rect x="23" y="567" fill="#EFDDBD" width="747" height="29"/>
	<text transform="matrix(1 0 0 1 51 588)" font-family="'MyriadPro-Regular'" font-size="18">Footer</text>
	<text transform="matrix(1 0 0 1 166 588)" font-family="'MyriadPro-Regular'" font-size="18">Social Media links</text>
	<text transform="matrix(1 0 0 1 365 588)" font-family="'MyriadPro-Regular'" font-size="18">Contact</text>
	<text transform="matrix(1 0 0 1 36.5 167)" font-family="'MyriadPro-Regular'" font-size="18">Project 1</text>
	<text transform="matrix(1 0 0 1 298.5 167)" font-family="'MyriadPro-Regular'" font-size="18">Project 2</text>
	<text transform="matrix(1 0 0 1 560.5 167)" font-family="'MyriadPro-Regular'" font-size="18">Project 3</text>
	<text transform="matrix(1 0 0 1 37 382)" font-family="'MyriadPro-Regular'" font-size="18">Project 4</text>
	<text transform="matrix(1 0 0 1 298.5 382)" font-family="'MyriadPro-Regular'" font-size="18">Project 5</text>
	<text transform="matrix(1 0 0 1 560.5 381)" font-family="'MyriadPro-Regular'" font-size="18">Project 6</text>
</g>
<g id="Layer_1">
	<text transform="matrix(1 0 0 1 63.9995 63.1846)" font-family="'MyriadPro-Regular'" font-size="43.3883">Rebecca Vest</text>
	<text transform="matrix(1 0 0 1 325 41.1938)" font-family="'MyriadPro-Regular'" font-size="23.1">Photographer</text>
	<text transform="matrix(1 0 0 1 422 61.1758)" font-family="'MyriadPro-Regular'" font-size="23.1206">and Designer</text>
</g>
</svg>
